{
  "asset": {
    "version": "2.0",
    "generator": "THREE.GLTFExporter"
  },
  "scenes": [
    {
      "nodes": [
        0
      ]
    }
  ],
  "scene": 0,
  "nodes": [
    {
      "children": [
        8
      ],
      "matrix": [
        0.01,
        0,
        0,
        0,
        0,
        0.01,
        0,
        0,
        0,
        0,
        0.01,
        0,
        0,
        0,
        0,
        1
      ]
    },
    {
      "name": "Object_2",
      "mesh": 0
    },
    {
      "name": "Object_3",
      "mesh": 1
    },
    {
      "name": "CRAVATEobjcleanermaterialmergergles",
      "children": [
        1,
        2
      ]
    },
    {
      "matrix": [
        1,
        0,
        0,
        0,
        0,
        2.220446049250313e-16,
        -1,
        0,
        0,
        1,
        2.220446049250313e-16,
        0,
        0,
        0,
        0,
        1
      ],
      "name": "Sketchfab_model",
      "children": [
        3
      ]
    },
    {
      "matrix": [
        1,
        0,
        0,
        0,
        0,
        1,
        0,
        0,
        0,
        0,
        1,
        0,
        0,
        -1109.5837453148843,
        0,
        1
      ],
      "name": "black_tie",
      "children": [
        4
      ]
    },
    {
      "matrix": [
        0.029066110102203946,
        -2.0052849825091812e-8,
        -0.9995774913649899,
        0,
        -0.3073006550117839,
        0.9515705220242396,
        -0.00893582921975905,
        0,
        0.9511684754410522,
        0.30743054762745314,
        0.027658447400914388,
        0,
        2566.365088167942,
        915.1962627060034,
        58.1515989149494,
        1
      ],
      "camera": 0
    },
    {
      "matrix": [
        1,
        0,
        0,
        0,
        0,
        1,
        0,
        0,
        0,
        0,
        1,
        0,
        0,
        1,
        0,
        1
      ],
      "name": "Default Ambient Light"
    },
    {
      "name": "Scene 1",
      "children": [
        5,
        6,
        7
      ]
    }
  ],
  "bufferViews": [
    {
      "buffer": 0,
      "byteOffset": 0,
      "byteLength": 22704,
      "target": 34962,
      "byteStride": 12
    },
    {
      "buffer": 0,
      "byteOffset": 22704,
      "byteLength": 22704,
      "target": 34962,
      "byteStride": 12
    },
    {
      "buffer": 0,
      "byteOffset": 45408,
      "byteLength": 15136,
      "target": 34962,
      "byteStride": 8
    },
    {
      "buffer": 0,
      "byteOffset": 60544,
      "byteLength": 40368,
      "target": 34963
    },
    {
      "buffer": 0,
      "byteOffset": 100912,
      "byteLength": 90408,
      "target": 34962,
      "byteStride": 12
    },
    {
      "buffer": 0,
      "byteOffset": 191320,
      "byteLength": 90408,
      "target": 34962,
      "byteStride": 12
    },
    {
      "buffer": 0,
      "byteOffset": 281728,
      "byteLength": 60272,
      "target": 34962,
      "byteStride": 8
    },
    {
      "buffer": 0,
      "byteOffset": 342000,
      "byteLength": 158448,
      "target": 34963
    }
  ],
  "buffers": [
    {
      "byteLength": 500448,
      "uri": "data:application/octet-stream;base64,"
    }
  ],
  "accessors": [
    {
      "bufferView": 0,
      "componentType": 5126,
      "count": 1892,
      "max": [
        0.9976062178611755,
        0.9983429908752441,
        0.988943874835968
      ],
      "min": [
        -0.9969635009765625,
        -0.9993422627449036,
        -0.9960882663726807
      ],
      "type": "VEC3"
    },
    {
      "bufferView": 1,
      "componentType": 5126,
      "count": 1892,
      "max": [
        71.76901245117188,
        110.73682403564453,
        1580.3909912109375
      ],
      "min": [
        -70.70849609375,
        -119.2624740600586,
        1206.0584716796875
      ],
      "type": "VEC3"
    },
    {
      "bufferView": 2,
      "componentType": 5126,
      "count": 1892,
      "max": [
        0.48594799637794495,
        0.9821789860725403
      ],
      "min": [
        0.017821000888943672,
        0.017821000888943672
      ],
      "type": "VEC2"
    },
    {
      "bufferView": 3,
      "componentType": 5125,
      "count": 10092,
      "max": [
        1891
      ],
      "min": [
        0
      ],
      "type": "SCALAR"
    },
    {
      "bufferView": 4,
      "componentType": 5126,
      "count": 7534,
      "max": [
        0.9999012351036072,
        0.9996740221977234,
        0.9996404647827148
      ],
      "min": [
        -0.9993829727172852,
        -0.9997113347053528,
        -0.999771773815155
      ],
      "type": "VEC3"
    },
    {
      "bufferView": 5,
      "componentType": 5126,
      "count": 7534,
      "max": [
        74.11532592773438,
        113.15318298339844,
        1582.1820068359375
      ],
      "min": [
        -73.08084106445312,
        -120.61773681640625,
        1204.6717529296875
      ],
      "type": "VEC3"
    },
    {
      "bufferView": 6,
      "componentType": 5126,
      "count": 7534,
      "max": [
        0.48594799637794495,
        0.9821789860725403
      ],
      "min": [
        0.017821000888943672,
        0.017821000888943672
      ],
      "type": "VEC2"
    },
    {
      "bufferView": 7,
      "componentType": 5125,
      "count": 39612,
      "max": [
        7533
      ],
      "min": [
        0
      ],
      "type": "SCALAR"
    }
  ],
  "meshes": [
    {
      "primitives": [
        {
          "mode": 4,
          "attributes": {
            "NORMAL": 0,
            "POSITION": 1,
            "TEXCOORD_0": 2
          },
          "extras": {
            "parameters": {
              "width": 142.47750854492188,
              "height": 229.99929809570312,
              "depth": 374.33251953125,
              "subdivisions": 0
            },
            "type": "NonParametricGeometry"
          },
          "indices": 3
        }
      ]
    },
    {
      "primitives": [
        {
          "mode": 4,
          "attributes": {
            "NORMAL": 4,
            "POSITION": 5,
            "TEXCOORD_0": 6
          },
          "extras": {
            "parameters": {
              "width": 147.1961669921875,
              "height": 233.7709197998047,
              "depth": 377.51025390625,
              "subdivisions": 0
            },
            "type": "NonParametricGeometry"
          },
          "indices": 7
        }
      ]
    }
  ],
  "cameras": [
    {
      "type": "perspective",
      "perspective": {
        "aspectRatio": 1.9896373056994818,
        "yfov": 0.7853981633974483,
        "zfar": 100000,
        "znear": 70
      }
    }
  ]
}